<?xml version="1.0" encoding="utf-8"?>
<!-- Generator: Adobe Illustrator 24.1.0, SVG Export Plug-In . SVG Version: 6.00 Build 0)  -->
<svg version="1.1" id="Ñëîé_1" xmlns="http://www.w3.org/2000/svg" xmlns:xlink="http://www.w3.org/1999/xlink" x="0px" y="0px"
	 viewBox="0 0 113.4 116" style="enable-background:new 0 0 113.4 116;" xml:space="preserve">
<style type="text/css">
	.st0{fill:url(#SVGID_1_);}
	.st1{fill-rule:evenodd;clip-rule:evenodd;fill:#FFFED9;}
	.st2{fill-rule:evenodd;clip-rule:evenodd;fill:#AD3655;}
	.st3{fill-rule:evenodd;clip-rule:evenodd;fill:#FFFFFF;}
	.st4{fill:#601232;}
	.st5{fill-rule:evenodd;clip-rule:evenodd;fill:#3D4217;}
</style>
<linearGradient id="SVGID_1_" gradientUnits="userSpaceOnUse" x1="56.6916" y1="-4.918391e-02" x2="56.6916" y2="116.014">
	<stop  offset="0" style="stop-color:#347100"/>
	<stop  offset="1" style="stop-color:#006A65"/>
</linearGradient>
<path class="st0" d="M94.7,86c-0.9,3.4-2.9,6.5-5.6,8.8c6.2,0.8,9.2,9.1,5.3,13.8c-3,3.7-9.3,3-13.6,2.8c-3.2,5-13.2,5.4-18.2,3.7
	c-1.2-0.4-2.4-1.1-3.5-1.4c-3.7-0.6-6.4-3.2-6.3-7.1c0.1-1.6,0.4-3.2,1.1-4.7c-0.3-1-0.5-2-0.6-3.1c-3.4-1.1-6.5-2.8-9.2-5.1
	C30,88.5,18.5,84.3,8.6,71.4c-3.2-4.1-6-8.7-8.1-13.5c-1.2-2.2-0.3-5,1.9-6.1C4,51,6,51.1,7.4,52.2c0.3,0.3,0.7,0.6,1,0.9
	c4.6,4.6,10,9.7,19.9,13.8c5,1.9,10.3,3.1,15.6,3.8c4.4,0.6,6.4-1.6,9.4-4.9c0.5-0.6,2.9-2.8,4.5-4.3s0.1-1.5-1.9-2.6
	c-14.6-8.7-8.6-15-8.4-27.2c0.1-6.7-5.2-9.8,3.5-16.6c3.2-2.5,7.2-3.6,10.8-4.5c4-1.1,5.4-1.9,8.9-4c8.2-4.8,17.4-9,27-5.3
	c7.9,3,12.6,11.1,11.5,19.5c-0.8,6.7-5.4,15.7-9.2,21.4c3.2,1.2,10.2,2.8,12.1,5.4c1.3,2.1,1.7,4.6,1,6.9c-0.7,3.1-2.7,7.2-5.2,9.2
	c1.2,1.4,2,3.2,2.2,5c0.3,1.6-0.3,3.3-1.6,4.3c-1.3,3.4-5.1,5.2-8.6,3.9c-0.7-0.2-1.3-0.6-1.8-1c-0.6,0.4-2.2,1.6-2.4,1.7
	C95.7,80.5,95.4,83.3,94.7,86L94.7,86z"/>
<path class="st1" d="M90.3,71.2c1,5.6,1.6,12.3-1.6,17.3c-1.3,2-3,3.6-5.1,4.7c-0.1,2-0.9,3.9-2.2,5.3c-1.4,1.8-1.7,2.4,0.5,2.4
	c1.4,0.1,2.9-0.2,4.1-0.9c2.9-1.9,5.6,0.2,5.7,3.3c0.3,1.6-0.8,3.2-2.5,3.4c-0.1,0-0.3,0-0.4,0l0,0c1.2-2.4-0.1-6.6-3.6-5
	c-0.6,0.2-0.3,0.6,0.3,0.4c3-1.3,3.5,3.2,2.2,4.7c-3.2,0.1-6.3,0.1-9.5-0.2c0-0.2,0-0.3,0-0.5c-0.2-3.1-1.8-4.6-3.3-4.6
	c-0.9,0-1.9,0.9-2.7,1.2c1-1.7,1.3-3.7,0.7-5.6c1.5-0.2,2.9-0.8,4.1-1.7c6.2-5.6,5.1-15-3.2-18c-0.9-0.3-0.3,0.3-0.1,0.4
	c7.6,2.8,7.4,11.3,1.9,16.4c-2.9,2.7-8.8,1.5-8.3,5c0.3,2.1,2.3,3.4,4.1,4c1.1,0.4,2.5-0.9,3.8-0.7c1.1,0.1,2.1,1.4,2.3,3.8
	c0.1,0.9-0.1,1.8-0.6,2.5c-0.5,0.6-1.2,1-1.9,1.2c0.3-0.7,0.5-1.5,0.5-2.3c0-1-0.5-1.9-1.4-2.3c-0.6-0.2-1.2-0.4-1.9-0.3
	c-0.6,0-0.5,0.4,0.1,0.4c1.3-0.1,2.3,0.9,2.4,2.1c0,0,0,0.1,0,0.1c-0.1,0.9-0.4,1.8-0.8,2.6c-1.3,0.3-2.6,0.5-3.9,0.6
	c1.3-2.1,1.4-4.2-1.8-4.9c-0.6-0.1-0.6,0.3-0.1,0.4c2.8,0.6,2.1,2.8,0.8,4.5c-2.2,0.1-4.5-0.5-6.4-1.6c-0.7-0.3-1.4-0.6-2.1-0.7
	c-0.7-0.1-1.4-0.4-1.9-0.9c-0.5-0.7-0.1-2.5,0.2-3.2c0.6-1.9,1.5-1.1,0.6-4c-0.4-1.3-0.9-2.7,0.6-3.6c0.8-0.5,1.8-0.9,1.9-1.5
	c0.2-1.2-1-3-1.9-4.8c-1.1-2.3-2.7-5.2-1.6-6.6c1.4-1.8,3.3-2.5,5-5.2c0.3-0.5-0.2-0.8-0.5-0.3c-1.7,2.7-3.8,2.9-5.3,5
	s0.2,4.6,1.4,7.2c0.8,1.6,1.5,3.2,1.4,4.4c-4.7,0.2-9.5-2.1-13.2-5.4C41,87.7,30.3,84,21.9,78.3C14.8,73.4,7.3,62.4,4.7,55.8
	c2.8,2.9,5.7,5.5,8.9,8c2.2,3.1,3,6.9,3.8,7.3c2.9,1.6,3.1-7,3.8,0.6c0.1,1.1,0.6,2.2,1.4,3c0.7,0.3,1.4-0.8,3-4
	c0,0.5,0.1,1,0.2,1.6c0.3,1.3,1.9,7.2,3.8,3.1c0.4-0.8,0.8-1.6,1.4-2.2c0.1-0.1,0.3-0.3,0.4-0.4l1.4,0.4c0.7,1.1,1.3,2.2,1.8,3.4
	c0.7,1.3,1,1.8,1.5,1.9c0.7,0,1.1-2.4,2-4l1.1,0.2c0.4,0.8,0.7,1.6,0.9,2.5c0.4,1.5,0.8,1.8,1.1,1.6c0.6-0.4,1.1-2.5,1.7-3.4
	l0.6,0.1l0.6,0.1c2.3,3.3,5,10.6,6.2-0.1c0-0.3,0.1-0.5,0.1-0.8c0.5-0.2,1-0.5,1.5-0.8c0.6,0.3,1.3,0.8,2,1.1
	c3.1,1.6,3.4-0.1,2.5-3.8c-0.2-1-0.1-1.1,0.9-0.8c1.3,0.5,2.6,0.8,3.9,1c0.3,0,0.5-0.2,0.5-0.5c0-1.8-0.7-3.5-2-4.8l0.6-0.6
	c1,0.1,2.1,0.2,3.1,0.4c3.3,0.5,0.1-3.1-0.1-5.6c0.1-0.4,0-0.8-0.1-1.1c0-0.2-0.1-0.4-0.2-0.6c-0.6-1.1-2.1-1.9-4.1-3.2
	c-12.2-7.9-6.7-15.9-6.6-23.5c0.1-5-4-8.6,1.8-13.1c4.2-3.2,11.4-3.7,14.8-5.6C76,9,79.9,6.2,84.9,5.2c8.5-1.8,15.6,0,19.3,8.3
	c0.8,1.7,1.1,3.6,0.9,5.4c-0.1-1.1-0.4-2.1-1-3.1c-0.9-1.3-2.2-2.1-3.8-2.3C89.7,11.8,85,20.8,81.6,28.8c-3.3,6.6-7,13.8-14,14.9
	c0.4-0.7,0.6-1.5,0.7-2.4c0.1-0.6-0.4-0.6-0.5,0c-0.1,0.5-0.3,0.9-0.5,1.3C66.3,44.5,67,43.3,67,42c0-1-0.1-2.1-0.3-2
	c-0.1,0-0.2,0.2-0.1,0.5c0,1.3-0.4,2.6-0.9,3.7c-0.5,1.1-2.1,2.2-2.1,2.2c0.1,0.8,2.2-0.6,3.1-1.4c3,3.3,6.6,7.5,11.3,7.4
	c3.3,0,6.7,0.1,10,0.5c6.5,0.7,8,1.7,14.7,0.4c2.3-0.4,4.4-1.2,6.4-2.3c0.6,2.7-1.8,7.7-3.9,9.2c-4.7,3.3-10.2,2.1-16.9,1.4
	c-2.1-0.6-4.3-0.9-6.4-0.8c-0.6,0-0.6,0.4,0.1,0.4c1.8,0.2,3.6,0.6,5.3,1.4c0.5,0.3,0.8,0.7,1,1.2c0.5,1,1,2.1,1.3,3.2
	c0.5,1.3,0.8,2.7,1.1,4.1L90.3,71.2z M16,65.6c1,0.7,2.1,1.4,3.3,2C18.3,68.9,17,69.7,16,65.6z M22.2,69.2l1.6,0.8
	c-0.9,2.2-1.6,5-1.6-0.4C22.2,69.4,22.2,69.3,22.2,69.2L22.2,69.2z M26.3,71.1l0.2,0.1c1,0.4,2.2,0.8,3.5,1.2
	c-0.4,0.7-0.8,1.4-1.2,2.2c-1.2,2.5-1.9-0.8-2.3-2.6C26.5,71.7,26.4,71.4,26.3,71.1z M33.9,73.4c0.9,0.2,1.9,0.4,2.8,0.7
	c-0.9,1.5-1,2.5-1.6,1.4C34.6,74.7,34.3,74,33.9,73.4L33.9,73.4z M40.1,74.8l1.9,0.3c-0.2,0.8-0.6,1.5-1.1,2.1
	c-0.3,0.3-0.3-0.2-0.5-1.3C40.3,75.6,40.2,75.2,40.1,74.8L40.1,74.8z M45.1,75.5c1.3,0.1,2.6-0.1,3.9-0.5v0.2
	c-0.1,0.5-0.1,1.1-0.2,1.6C48,82,46.6,78,45.1,75.5L45.1,75.5z M52.6,73.1c0.8-0.6,1.6-1.3,2.3-2.1c0.4,1.6,1.2,4-0.8,2.9
	C53.6,73.7,53.1,73.4,52.6,73.1z M57.1,68.5c0.5-0.6,1-1.1,1.6-1.7c1.9,2.1,2.6,3.4,0.3,3C57.3,69.4,57,68.9,57.1,68.5L57.1,68.5z
	 M60.9,64.5c0.3-0.3,0.6-0.6,0.8-1c0.1-0.2,0.3-0.5,0.4-0.7c0.2,0.1,0.4,0.3,0.6,0.5C64.7,65.4,62.8,64.8,60.9,64.5L60.9,64.5z
	 M90.3,68.8c0.9,0.7,2.1,0.9,3.1,0.6c2.3-0.8,4.3-4,7-4.1c1.5-0.2,3,0.3,4,1.4c2.2,3,0.9,2.7-0.6,1.4c-1-0.7-2.4-0.8-3.5-0.2
	c1.1,0.1,2.5,0.4,3,1.7c1.4,3.7-0.5,1.6-1.4,0.8c-0.7-0.4-1.4-0.6-2.2-0.7c1.2,0.8,1.7,1,2.1,2.5c0.3,1.2-1,0.1-1.6-0.6
	c-1.1-1-2.9-0.9-4.5,0.2c-0.8,0.6-2.9,2.5-4.3,2.3C91.2,72.4,90.9,70.6,90.3,68.8L90.3,68.8z M104.2,23.1c-1.3,4.3-3.1,8.4-5.4,12.3
	c-1.6,3-3.5,5.8-5.8,8.4c0.9,1.1,2.5,1.7,6.2,3c3,1.1,6.1,1.6,8.6,3c0.1,0.1,0.6,0.4,0.5,0.6c-2,1-4.1,1.6-6.2,1.9
	c-1.9,0.4-3.9,0.5-5.9,0.3c-6.2-0.9-12.4-1.3-18.6-1c-4.4,0.1-7.1-3.3-9.1-5.9c-1.4-1.8,0-0.9,2.4-2.1c5.3-2.6,8.4-8.7,11.2-14.3
	c3.8-7.5,8.2-15.2,17.8-14.4c1.2,0,2.4,0.6,3.2,1.6c0.7,0.9,1.1,1.9,1.3,3C104.4,20.6,105.1,19.6,104.2,23.1L104.2,23.1z M83.4,11.6
	c0-0.2,0.2-0.4,0.5-0.4c0.1,0,0.2,0.1,0.3,0.1c0.8,0.7,1.1,2.5,0.1,3.1c-0.5,0.3-0.3,0.7,0.2,0.4c1.2-0.7,1.6-2.3,0.9-3.5
	c-0.2-0.3-0.3-0.5-0.6-0.7c-1.2-1-3,0.6-2.7,1.8c0.6,1.3,1.6,1.3,2,0.8C84.8,12.2,83.3,12,83.4,11.6L83.4,11.6z M56.9,31.7
	c1.1,1.7,3.1,2.5,5,2.1c2.6-0.5,4.9-2.2,6.1-4.6c4.9-9.1-3.4-11.9-9.3-7.9C55.6,23.7,53.5,26.5,56.9,31.7L56.9,31.7z M56.5,32.6
	c-3.7-5.1-1.8-9.4,1.6-11.9c2.6-1.9,7.1-3.1,10.1-1.5c2.6,1.4,3.6,4.7,0.5,10.4c-1.3,2.5-3.8,5.2-6.7,5.6
	C59.7,35.7,57.9,34.5,56.5,32.6L56.5,32.6z M71.4,66.9c0.1,0.4,2.4,4.1,3.2,4.2c1.7,0.2,2.7-0.9,3.8-2.1c1.3-1.4,3.4-3.5,5.5-3
	c2,0.4,2.3,2.7,2.3,3.8s-0.2,0.4-0.7-0.2c-0.8-1.1-3.3-2-2.8-0.8c0.2,0.5,1.2,0.9,1.4,2c0,0.3,0,0.6,0,0.9c-0.2,0.2-0.4-0.3-0.5-0.6
	c-0.3-0.4-0.6-0.8-1-1.1c-0.2-0.1-1-0.7-1.2-0.4s0.1,0.4,0.3,0.7c0.4,0.7,0.9,1.6,0.5,1.7c-0.2,0.1-0.6-0.7-0.8-0.9
	c-1.1-1.5-2.8,0.7-3.6,1.4c-1,1-3.9,3-5.3,2s-1.4-3.6-3.6-5.1c-0.5-0.3-0.8,0-0.3,0.3c1,0.7,1.4,2.1,1.9,2.9c0.4,0.9,1,1.7,1.8,2.3
	c0.8,0.5,1.9,0.3,3.4-0.2c2.6-0.9,3-3.2,4.5-3.6s1.5,3.3,1.9,3l0,0l0,0l0,0l0,0c0.6-0.5,0.8-1.3,0.8-2.1c0-0.2,0-0.5-0.1-0.7
	c0.5,0.7,0.9,1.4,1,2.3c0,0.2,0,0.3,0.1,0.4c0.4,0.2,1.3-1.3,0.9-2.8c-0.1-0.5-0.3-0.9-0.5-1.4c-0.1-0.1,0.2,0.1,0.9,0.8
	c0.4,0.5,0.7,1.1,0.8,1.7c0,0.2,0,0.4,0.2,0.4c0.8,0.2,1.9-6.4-2.4-7.3c-2.5-0.6-4.6,1.2-6.2,2.8c-1,1-1.8,1.9-3.1,1.8
	c-0.6-0.1-2.4-2.6-3-3.3C71.5,66.7,71.3,66.4,71.4,66.9L71.4,66.9z"/>
<path class="st2" d="M104.6,21.3c0.2-2-0.2-1.2-0.2-1.9c-0.1-1.1-0.6-2.1-1.3-3c-0.8-1-1.9-1.5-3.2-1.6c-9.5-0.8-14,6.8-17.8,14.4
	c-2.9,5.6-5.9,11.7-11.2,14.3c-2.4,1.2-3.8,0.3-2.4,2.1c2,2.6,4.6,6,9.1,5.9c6.2-0.3,12.5,0.1,18.6,1c2,0.2,3.9,0.1,5.9-0.3
	c2.2-0.3,4.3-1,6.2-1.9c0.2-0.2-1-0.9-1.2-1c-3-1.7-13.5-3.5-13.6-5.6c0-0.3,0.1-0.5,0.3-0.7c0.4-0.4,0.7-0.8,1-1.2
	C99.6,35.8,103,28.8,104.6,21.3z"/>
<path class="st3" d="M56.9,31.7c1.1,1.7,3.1,2.5,5,2.1c2.6-0.5,4.9-2.2,6.1-4.6c4.9-9.1-3.4-11.9-9.3-7.9
	C55.6,23.7,53.5,26.5,56.9,31.7L56.9,31.7z"/>
<path class="st4" d="M81.9,44.4l0.2-0.1L81.9,44.4z M70,46.4c-0.3,0.2,0,0.5,0.4,0.3c2.6-1.8,7.2-2.5,11.7-2.3h0.7
	c4.7,0.4,9.3,1.8,11.8,4.2c0.3,0.3,0.6-0.1,0.3-0.4c-2-1.9-4.5-3.3-7.1-4c-0.4-0.1-0.8-0.2-1.2-0.3c1.4-0.2,2.8-0.2,4.1,0.2l0.6,0.2
	c0.4,0.1,0.5-0.3,0.1-0.5c-2.6-0.8-5.3-0.9-7.9-0.4C78.6,42.9,73.5,43.9,70,46.4L70,46.4z"/>
<path class="st3" d="M74.8,47.8c0.6,0.6,0.7,1.8,0.6,3.6c-1.1-0.3-2.1-0.8-3-1.5C72.8,49.2,73.9,47.9,74.8,47.8L74.8,47.8z
	 M80.5,32.3c0.7-0.1,1,1.2,0.9,2.6c0,1-0.3,1.9-0.9,2.8c-0.2,0.2-0.8-0.4-1.2-1.1c-0.2-0.4-0.4-0.8-0.5-1.2
	C79.4,34.3,80,33.3,80.5,32.3L80.5,32.3z M83.5,26.5c0.5,0.2,1,0.6,1.2,1.1c0.5,0.9-0.2,4-0.8,4.2s-1.7-1.2-1.9-2.4v-0.1
	C82.5,28.4,83,27.4,83.5,26.5L83.5,26.5z M88.4,23.8c0,1.2-0.3,2.5-0.8,2.7c-0.2,0.1-0.5-0.2-1.4-0.9c-0.6-0.4-1-1-1.2-1.7
	c0.6-1,1.3-2,2-2.9C87.8,21,88.4,22,88.4,23.8L88.4,23.8z M91.3,16.9c0.1,0,0.3,0.1,0.4,0.1c0.7,0.3,0.9,1.1,1.1,2.9
	c0.3,2.6-1.1,0.9-2.6,0.8c-0.7-0.1-1.2-1.1-0.9-2c0-0.1,0.1-0.2,0.1-0.3C90,17.8,90.6,17.3,91.3,16.9L91.3,16.9z M97.7,14.9
	c0.4,0.5,0.7,1.1,0.7,1.7c0.1,0.9-0.1,1.6-0.4,1.7c-0.6,0.2-1.5-0.3-2.5-1c-0.7-0.4-1.1-1.2-0.8-2C95.7,15,96.7,14.9,97.7,14.9
	L97.7,14.9z M103.1,16.6c0,0.2,0,0.5-0.1,0.7c-0.2,1.1-0.6,1.5-1.6,0.5c-0.2-0.2-0.4-0.5-0.7-0.9c-0.6-0.7-1.1-1.5-0.7-1.9
	C101.3,15,102.4,15.6,103.1,16.6L103.1,16.6L103.1,16.6z M104,19.6c0.2,0.1,0.4,0.2,0.5,0.3l0,0l0,0c0.7,0.8,1,1.9,0.8,3
	c-0.1,0.3-1-0.8-2.1-0.8C102.9,22.1,102.9,19.1,104,19.6L104,19.6z M104.1,25.4c0.3,0.9,0.2,1.8-0.1,2.6c-0.4,0.6-0.3,0.2-0.6-0.2
	c-0.2-0.3-0.5-0.4-0.9-0.4c-0.6-0.1-0.8-0.3-0.8-0.7s0.9-2,1.3-2.1S103.9,24.9,104.1,25.4L104.1,25.4z M101.9,33.4
	c-0.9,1.8-0.2-0.5-2-0.6s-0.8-2.1,0.3-2.9C102.4,28.2,102.4,32.4,101.9,33.4L101.9,33.4z M98.5,35.3c0.4,1,0.6,2.9,0,3.8
	c-0.8,1.1-0.2-0.6-2.2-0.9C93.6,37.8,97.6,32.9,98.5,35.3L98.5,35.3z M93.3,44.7c-0.3,0.7,1.3,2.1,2.2,1c0.2-0.4,0.3-0.9,0.3-1.4
	c0-1,0.1-2.3-1.1-1.2C94.1,43.5,93.7,44.1,93.3,44.7z M96.7,46.2c-0.3,0.7,1.3,2.1,2.2,1c0.2-0.4,0.3-0.9,0.3-1.4
	c0-1,0.1-2.3-1.1-1.2C97.6,45.1,97.1,45.6,96.7,46.2z M100.2,47.5c-0.3,0.6,1.2,2,2.1,0.9c0.2-0.4,0.3-0.9,0.2-1.3
	c0-0.9,0.1-2.1-1-1.1C101.1,46.4,100.6,46.9,100.2,47.5L100.2,47.5z M103.7,48.7c-0.2,0.6,1.1,1.8,1.9,0.9c0.2-0.4,0.2-0.8,0.2-1.2
	c0-0.8,0.1-2-1-1C104.4,47.8,104,48.3,103.7,48.7L103.7,48.7z M106.2,48.8c0.6,0.1,1.1,0.8,1.7,1.8c-0.8,0.3-1.5,0.6-2.3,0.8
	C105.3,50.5,105.6,49.6,106.2,48.8L106.2,48.8z M102.7,49.8c0.6,0.1,1.2,0.9,1.8,2c-0.8,0.2-1.6,0.4-2.4,0.5H102
	C101.9,51.5,102.1,50.5,102.7,49.8L102.7,49.8z M99,49.9c0.6,0.3,1.2,1.2,1.6,2.7c-1,0.1-1.9,0.2-2.9,0.2
	C97.7,51.7,98.2,50.6,99,49.9L99,49.9z M94.7,49.7c0.6,0.4,0.9,1.4,1.2,2.9c-1-0.2-1.9-0.3-2.9-0.4C93.2,51.1,93.8,50.2,94.7,49.7z
	 M89.7,49.1c0.7,0.3,1.2,1.4,1.6,2.9h-0.1c-0.9-0.1-1.9-0.2-2.8-0.2C88.4,50.7,88.9,49.7,89.7,49.1L89.7,49.1z M84.6,48.7
	c0.7,0.3,1.2,1.4,1.7,3c-1,0-2.1-0.1-3.1-0.1C83.2,50.5,83.7,49.4,84.6,48.7z M79.5,48.6c0.7,0.4,1.2,1.4,1.6,3h-3.2
	C77.8,50.9,78.5,49,79.5,48.6z"/>
<path class="st5" d="M62.5,33.7c-2.6-1.3-5.7-6.6-5-11.4c2.1,4.2,3.6,7.8,8.9,9C65.4,32.5,64,33.3,62.5,33.7L62.5,33.7z"/>
</svg>
